<?xml version="1.0" encoding="UTF-8"?>
<svg width="100px" height="90px" viewBox="0 0 100 90" version="1.1" xmlns="http://www.w3.org/2000/svg" xmlns:xlink="http://www.w3.org/1999/xlink">
    <title>Group 2 Copy 2</title>
    <g id="Page-1" stroke="none" stroke-width="1" fill="none" fill-rule="evenodd">
        <g id="Group-2-Copy-2" fill="#000000" fill-rule="nonzero">
            <g id="Path-Copy-2-2">
                <path d="M62.775573,0.676339799 C84.7616853,13.7805153 97.557746,38.4966776 92.9184815,59.8340752 L92.7989537,60.3576563 L93.0616518,60.7159317 C97.0368526,66.2465675 99.255283,72.2645718 99.8468027,77.970913 L99.9005369,78.5404792 C100.127464,81.2101842 99.9632283,83.663676 99.4371248,85.4933363 C99.0414647,86.8693469 98.4678447,87.9853734 97.3563157,88.8794601 C94.8717508,90.8779825 91.6722293,90.0309434 90.1091809,87.6976463 C90.0193684,87.5635768 89.936838,87.4248149 89.8619445,87.2819576 C86.7729833,81.3899265 81.4919036,80.9405562 75.3943832,84.0418788 C75.3786879,84.0496886 75.3053856,84.0930028 75.089661,84.2271818 C75.0233302,84.2684386 74.9618039,84.306563 74.9040065,84.3421327 L74.7961164,84.4076606 L74.7561937,84.4413827 C74.575109,84.5817834 74.3832231,84.7091259 74.1819673,84.8220567 L73.9776401,84.930134 L73.7386594,85.0404367 L73.5126877,85.1596637 C61.6778374,91.2565405 46.4130963,91.3192474 31.6474024,85.2124029 L30.9865994,84.9348387 C18.4341415,79.5137453 7.73486173,70.2602834 0.720599748,59.0415812 C-1.907224,54.8386067 3.20012337,50.1004051 7.22885098,53.0037285 C10.5052166,55.3648565 13.7382968,57.2849959 17.051194,58.7842309 C27.633427,63.772758 38.4261484,64.7133905 47.2995388,61.9255052 L47.6433858,61.8138309 L47.190708,61.429931 C36.5427359,52.3361948 26.6598061,41.4065012 15.5108826,27.289192 L14.7420785,26.3129476 L14.1807479,25.6381491 C12.7061145,23.8320961 11.2900945,21.87515 9.99145799,19.8584869 L9.44225698,18.9908126 C6.6796647,14.5496266 12.4431919,9.76642816 16.3369447,13.2688548 C18.7579342,15.446532 21.5848069,17.8390176 24.5911459,20.2819957 L24.6162109,20.3032664 L24.2560635,19.8052485 C23.7287891,19.0761081 23.2283048,18.3760828 22.7596632,17.7127103 L22.4142318,17.2221711 C21.7791501,16.3173215 21.2467902,15.5409672 20.8811288,14.9885752 C20.6915686,14.7022123 20.546485,14.4758693 20.4379772,14.29428 C20.2830127,14.0349437 20.1897015,13.8642102 20.0638845,13.5498631 C19.9425739,13.2562558 19.9425739,13.2562558 19.7728776,12.4216311 C19.6920688,11.7383251 19.6920688,11.7383251 20.0308925,10.2741893 C21.2376981,8.22557613 21.2376981,8.22557613 23.7377395,7.38582007 C25.5092543,7.45593099 25.5092543,7.45593099 26.2384916,7.79924035 C26.7415091,8.07085346 26.7415091,8.07085346 26.9970907,8.25716271 C27.3446393,8.53786412 27.3446393,8.53786412 27.504797,8.69648192 C37.0631543,18.2573988 46.9969316,26.7385458 56.7163737,34.0364031 C60.1122411,36.5861951 63.2350873,38.8036645 66.0111625,40.6763683 L66.1437832,40.7664114 L66.1887858,40.5332698 C68.0514107,30.1574132 64.7768835,18.2041289 57.1990128,7.77084111 L56.8032201,7.23255967 C53.8518179,3.26732948 58.5216807,-1.85906744 62.775573,0.676339799 Z" id="Path-Copy-2"></path>
            </g>
        </g>
    </g>
</svg>