<svg width="40" height="40" viewBox="0 0 40 40" fill="none" xmlns="http://www.w3.org/2000/svg">
<g clip-path="url(#clip0_973_1353)">
<path fill-rule="evenodd" clip-rule="evenodd" d="M24.0355 37.979C24.0129 38.9226 23.3497 39.7433 22.4126 39.856C21.6217 39.9511 20.8165 40 20 40C8.9543 40 0 31.0457 0 20C0 8.9543 8.9543 0 20 0C31.0457 0 40 8.9543 40 20C40 20.8166 39.9511 21.6217 39.856 22.4126C39.7433 23.3497 38.9226 24.0129 37.979 24.0355C34.5302 24.1183 32.3472 24.3933 30.5521 25.3079C28.2942 26.4584 26.4584 28.2942 25.3079 30.5521C24.3933 32.3472 24.1183 34.5302 24.0355 37.979Z" fill="white"/>
</g>
<defs>
<clipPath id="clip0_973_1353">
<rect width="40" height="40" fill="white" transform="matrix(1 0 0 -1 0 40)"/>
</clipPath>
</defs>
</svg>
