<?xml version="1.0" encoding="UTF-8"?>
<svg width="104px" height="124px" viewBox="0 0 104 124" version="1.1" xmlns="http://www.w3.org/2000/svg" xmlns:xlink="http://www.w3.org/1999/xlink">
    <title>Path Copy 3</title>
    <defs>
        <path d="M61.9840156,0.0717843799 C64.0055722,-0.265476924 66.2219273,0.668304105 67.0646839,1.15751031 C67.6265216,1.48364778 68.3321847,2.03794679 69.1816733,2.82040735 C69.491321,3.2026739 69.8241739,3.60296765 70.2213697,4.07227188 C70.4374237,4.32754916 71.7742442,5.89118085 72.1694679,6.36101271 C73.8368841,8.34319459 74.99667,9.87697603 76.0420458,11.59738 C79.7965393,17.7762411 81.205066,23.1682462 82.9181563,34.2699917 C83.7098534,39.4005948 83.5712252,44.4586714 82.6845237,50.4532193 L82.636,50.7657844 L82.6522017,50.7753749 C85.9659047,52.6364567 99.3866705,71.6402968 100.901354,74.0322359 C102.416037,76.4241749 102.679683,78.3207783 102.999901,79.518952 C103.32012,80.7171257 102.97751,84.9093995 102.92664,86.6065385 L102.908423,87.169833 C102.888917,87.7317895 102.865468,88.2929737 102.837343,88.8825604 L102.781155,90.0604462 L102.342165,91.154914 C101.801969,92.5017028 101.263173,93.8947019 100.680942,95.4434715 C100.341392,96.346694 99.9904711,97.2934916 99.5768777,98.4199826 C99.4746223,98.6984924 99.3817636,98.9517993 99.2718,99.2522698 L99.1551533,99.5711418 C99.0515604,99.8544365 98.9299545,100.187235 98.7749989,100.611417 L95.108,104.580784 L95.0707176,104.614445 C94.9327144,104.737538 94.7478497,104.922026 94.4920148,105.195479 L94.3580716,105.339748 C94.1997305,105.511492 93.5842391,106.191067 93.5389597,106.240731 C92.5411634,107.335147 91.7913564,108.084959 90.8567209,108.849453 C88.1283703,111.081135 85.0929839,112.490402 81.7248215,113.578731 C81.5856194,113.62371 81.4298432,113.680838 81.0245995,113.835445 L80.8027371,113.919847 C80.3166357,114.104092 80.0338518,114.205725 79.6448051,114.331604 C78.3859131,114.738916 77.3706836,115.064233 75.1293094,115.780106 C75.1182531,115.783637 75.1182531,115.783637 75.1071973,115.787168 C71.2139093,117.030645 69.1293841,117.702931 67.0646839,118.391453 L66.5686205,118.557311 C66.3198633,118.640697 66.0693306,118.724993 65.8139313,118.811214 C65.4177961,118.944948 65.0142466,119.118683 64.0055722,119.585441 C62.5484796,120.259701 61.8459172,120.562582 60.824579,120.909473 C56.9660953,122.219965 54.1522061,122.285375 48.3067146,121.820814 C47.9248074,121.790463 47.698873,121.772666 47.4922363,121.756885 L47.2869702,121.741385 C47.0440375,121.72324 46.8051433,121.706067 46.5660418,121.689617 L46.0863041,121.657605 C44.6387131,121.564015 43.0817521,121.490424 40.4982864,121.382767 C40.3820968,121.377926 40.3820968,121.377926 40.2657495,121.373082 C35.905492,121.191529 33.94542,121.087661 31.4499538,120.870118 C30.7736537,120.811161 30.0871036,120.734483 29.3788608,120.640263 C27.6672715,120.412566 26.6601824,120.232067 23.3450915,119.596825 C22.1409266,119.366081 21.4031114,119.229108 20.6330993,119.096553 L20.771,119.119784 L20.742778,119.116943 L20.6677887,119.107178 C20.3451143,119.064196 20.0777592,119.020718 19.749913,118.947474 C19.2247532,118.830149 18.7065455,118.665593 18.1823463,118.434962 C17.8296184,118.279774 17.490528,118.101338 17.1642152,117.900672 L17.328,117.995784 C17.0059737,117.812186 16.6264515,117.618009 16.0656266,117.351545 L15.8465775,117.248107 C15.6823764,117.171003 15.5113641,117.091394 15.1475528,116.92223 C12.343154,115.616079 10.8728091,114.772012 9.20598379,113.161532 C7.41437939,111.430483 6.50477031,109.981739 4.84723284,106.830364 C4.83633612,106.809647 4.83633612,106.809647 4.82548337,106.789013 C4.30362642,105.796853 4.07032534,105.370309 3.80637691,104.938616 C3.32348062,104.148834 2.91560556,103.505983 1.97591514,102.042903 C1.53641719,101.358613 1.34016237,101.052299 1.09339769,100.664304 L0,94.672979 C0,91.6392022 0.0154767949,89.8739415 0.0836411776,88.1447454 L0.105708331,87.625836 C0.121523132,87.2789745 0.139594281,86.9286257 0.160219462,86.5649302 L1.57,82.5047844 L1.66509044,82.1786269 C2.69439638,78.6775565 3.77312646,74.9826429 5.0052426,70.7419796 L5.27165312,69.8247845 C5.31533148,69.6743667 5.3566755,69.5113425 5.45799855,69.0917987 C5.60557669,68.4807287 8.87501233,62.9144448 9.34393797,62.3407978 C9.8128636,61.7671509 10.7836355,61.2449088 11.7495712,60.7168013 L11.906,60.6317844 L11.896077,60.6113577 C11.8826088,60.5818786 11.8781194,60.5720522 11.8706051,60.5556057 L11.8555642,60.5226869 C10.42642,57.3948107 9.82668037,55.8827856 9.33073372,53.6798604 C9.25991148,53.3653365 9.25991148,53.3653365 9.18883466,53.0497181 C7.29312013,44.6306589 6.53190282,40.5541984 6.1376789,35.4420561 C5.55920608,27.9406624 6.89031511,20.6660575 10.1748157,13.9317836 C14.3855607,5.29840887 21.7659531,3.6156747 28.8557782,10.3691878 C29.0807101,10.5834512 29.2062854,10.7167117 29.4237285,10.9559985 L29.377,10.9057844 L29.5845817,11.0982913 C33.9870688,15.2680258 36.5231661,20.3466916 38.4315086,27.2885551 L38.5891106,27.8713771 C38.6642804,28.1539468 38.7366647,28.4307812 38.8070123,28.7051259 L38.9452137,29.2514577 L39.0793148,29.7969204 C39.4105517,31.1642996 39.715828,32.5776268 40.0887369,34.4426094 L40.108,34.5427844 L40.300221,34.5036787 C42.7105148,34.0153623 45.1886959,33.7135761 47.7411303,33.588082 L48.086,33.5727844 L48.0605818,33.4015922 C47.8112603,31.6904269 47.7061289,30.3499846 47.7086044,28.8234441 L47.7105234,28.5154897 C47.8220941,18.1107962 51.6404805,7.76551133 54.4558092,4.43387956 C57.2711379,1.10224778 59.9624591,0.409045684 61.9840156,0.0717843799 Z" id="path-1"></path>
    </defs>
    <g id="Page-1" stroke="none" stroke-width="1" fill="none" fill-rule="evenodd">
        <g id="Group-6-Copy-2" transform="translate(0, 0.9282)">
            <mask id="mask-2" fill="white">
                <use xlink:href="#path-1"></use>
            </mask>
            <use id="Path-Copy-3" fill="#000000" fill-rule="nonzero" xlink:href="#path-1"></use>
        </g>
    </g>
</svg>