<?xml version="1.0" encoding="UTF-8"?>
<svg width="92px" height="82px" viewBox="0 0 92 82" version="1.1" xmlns="http://www.w3.org/2000/svg" xmlns:xlink="http://www.w3.org/1999/xlink">
    <title>Group 2 Copy 3</title>
    <defs>
        <linearGradient x1="50%" y1="0%" x2="50%" y2="100%" id="linearGradient-1">
            <stop stop-color="#FBAE40" offset="0%"></stop>
            <stop stop-color="#FF3828" offset="100%"></stop>
        </linearGradient>
    </defs>
    <g id="Page-1" stroke="none" stroke-width="1" fill="none" fill-rule="evenodd">
        <g id="Group-2-Copy-3" transform="translate(0.5676, 0.5456)" fill="url(#linearGradient-1)" fill-rule="nonzero">
            <path d="M83.3044914,56.8483358 C83.4178309,56.3971585 83.5311703,55.9459812 83.6445098,55.494804 C88.6314453,35.7557985 76.5041248,12.2945806 55.8763459,0 C64.9435015,12.1817862 68.910382,26.9578418 65.3968592,39.8163939 C65.0568409,40.9443371 64.7168226,42.0722802 64.2634648,43.2002234 C63.810107,42.8618405 63.2434098,42.5234575 62.4500337,42.1850746 C62.4500337,42.1850746 41.9355943,29.552111 19.7210633,7.3316306 C19.1543661,6.76765902 31.6217049,25.0403384 45.675796,39.8163939 C38.9887688,36.0941814 20.5144394,22.6716577 8.7271372,12.0689919 C10.20055,14.4376726 11.9006416,16.8063532 13.7140727,18.9494453 C23.4612649,31.3568201 36.2686221,46.5840529 51.5694471,58.3146619 C40.8021999,64.8567323 25.6147144,65.4207038 10.5405683,58.3146619 C6.80036665,56.6227471 3.28684388,54.4796551 3.63797881e-12,52.1109744 C6.34700887,62.262463 16.2075405,71.0604197 28.2215216,76.2489583 C42.5022915,82.3398514 56.7830615,82.0014684 67.3236298,76.3617526 L67.3236298,76.3617526 C67.3236298,76.3617526 67.4369692,76.3617526 67.4369692,76.2489583 C67.890327,76.0233696 68.3436848,75.6849867 68.7970426,75.4593981 C73.8973176,72.8651288 83.8711886,70.2708595 89.311482,80.6479366 C90.8982342,83.0166173 93.7317203,69.4812993 83.3044914,56.8483358 C83.3044914,56.8483358 83.3044914,56.8483358 83.3044914,56.8483358 Z" id="Path-Copy"></path>
        </g>
    </g>
</svg>