<?xml version="1.0" encoding="UTF-8"?>
<svg width="187px" height="191px" viewBox="0 0 187 191" version="1.1" xmlns="http://www.w3.org/2000/svg" xmlns:xlink="http://www.w3.org/1999/xlink">
    <title>Path Copy</title>
    <g id="Page-1" stroke="none" stroke-width="1" fill="none" fill-rule="evenodd" stroke-linejoin="round">
        <path d="M93.9798693,6.95963693 C102.038604,3.80459178 110.402199,3.49462963 118.86766,4.54215324 C129.936702,5.91184896 140.273911,9.53872433 150.083605,14.7851057 C154.379633,17.0826914 158.357031,19.626098 160.795928,24.0571048 C160.924793,24.2912211 161.133096,24.4761371 161.312817,24.679505 C161.522227,24.9164674 161.730611,25.1542348 161.927578,25.3978897 C162.690389,26.3415131 163.526272,27.0183809 164.503474,27.3543689 C165.53291,27.7083158 166.676787,27.6824702 167.932854,27.4172633 C169.762273,27.0309997 172.006429,27.3517431 173.811872,28.0603054 C175.525673,28.7328973 177.184943,29.5448838 178.842376,30.361193 C179.465925,30.6682994 180.089416,30.9755254 180.716559,31.2734893 L183,32.3583808 L183,34.8864416 C183,35.9009622 182.994881,36.915181 182.907539,37.916079 L182.790859,39.2531726 L181.891291,40.2492704 C180.37793,42.9362058 179.297062,45.0605442 178.221748,47.1733501 C176.74999,50.0651012 175.288865,52.9358082 173.798969,55.7914928 C172.815977,57.6756339 171.430705,58.6884571 169.93259,59.1042082 C168.575994,59.4806852 166.919425,59.4560197 164.952278,58.3127265 L164.436,58.02 L164.436057,59.0207016 L164.435944,59.7232745 L164.435991,77.7705049 C164.437859,96.6278027 164.439723,115.485101 164.388002,134.342242 C164.377565,138.148919 164.200209,142.008063 163.556251,145.748623 C161.194637,159.466762 153.619025,169.164084 140.543017,174.320722 C134.631881,176.651841 128.406448,177.022695 122.171431,177.106066 L120.83532,177.12014 C113.100966,177.18321 105.366016,177.173336 97.6310525,177.163402 C94.1094291,177.15888 90.5878027,177.154355 87.066223,177.156754 C86.376117,177.157224 85.6515369,177.104753 84.9195825,177.040393 L84.316853,176.986994 C83.7149626,176.934736 83.0176462,176.609212 82.5401038,176.882661 C82.1006142,177.134309 82.0793418,177.877314 81.8562301,178.371675 L81.6073249,178.92626 C81.3101611,179.587747 81.0058921,180.239407 80.6738005,180.833821 C79.5320125,182.877507 78.0617669,184.388732 76.3282357,185.415974 C74.5887944,186.446719 72.5609422,187.007079 70.221728,186.999981 C64.7502468,186.983239 60.1552617,184.521937 55.8338694,181.540117 C54.2080582,180.41827 52.7976985,178.804993 51.666923,177.121888 C50.453578,177.082421 49.2378971,177.056195 48.0218776,177.029855 C43.8537744,176.939571 39.6827586,176.840149 35.5797222,176.27147 C27.6745133,175.175811 20.7120689,171.687944 15.4115304,166.54022 C10.0998542,161.381679 6.4494411,154.550593 5.20945509,146.745505 C4.33175798,141.220865 4.12612752,135.546029 4.09706215,129.936361 C3.97567036,106.507254 3.9728083,83.0770646 4.06249823,59.6477849 C4.078146,55.5599736 4.59468866,51.4430799 5.22674925,47.3929051 C7.08641218,35.476413 13.7283904,26.8717656 24.2565847,21.2670344 C30.785613,17.7912782 37.9985797,17.0367948 45.244161,16.9953831 C61.2173235,16.9040887 77.1908687,16.8798498 93.1644115,16.8556226 L84.283,16.869 L88.382,14.034 L87.3651583,10.5918755 L90.1521989,9.03170528 C90.4599826,8.85940959 90.7625169,8.67412831 91.0655011,8.4896288 C92.0111367,7.91379253 92.9654223,7.35679945 93.9798693,6.95963693 Z" id="Path-Copy" stroke="#000000" stroke-width="8" fill="#000000" fill-rule="nonzero"></path>
    </g>
</svg>