<?xml version="1.0" encoding="UTF-8"?>
<svg width="180px" height="65px" viewBox="0 0 180 65" version="1.1" xmlns="http://www.w3.org/2000/svg" xmlns:xlink="http://www.w3.org/1999/xlink">
    <title>Group-2 Copy 3</title>
    <defs>
        <path d="M42.8589156,14.6036678 L46.9436101,15.0618756 L46.9436101,15.0618756 L42.8589156,14.6036678 Z M36.8751641,4.27518288 L36.0478788,8.30744041 L36.8751641,4.27518288 Z M37.5327971,30.4677663 L33.9886655,28.3831193 L30.5635882,34.2237081 L37.3175073,34.5785778 L37.5327971,30.4677663 Z M42.6824602,32.6940774 L39.7829224,35.6116747 L39.7829224,35.6116747 L42.6824602,32.6940774 Z M45.336803,38.7125268 L41.2560769,39.2049442 L41.2560769,39.2049442 L45.336803,38.7125268 Z M45.1860009,44.1614813 L49.2647427,44.6703646 L49.2647427,44.6703646 L45.1860009,44.1614813 Z M44.8118304,46.7953248 L40.7479704,46.178845 L40.7479704,46.178845 L44.8118304,46.7953248 Z M44.8063029,46.8318054 L48.8701629,47.4482852 L48.8701629,47.4482852 L44.8063029,46.8318054 Z M44.4580692,49.2650765 L48.5361024,49.7797796 L48.5361024,49.7796377 L44.4580692,49.2650765 Z M44.3238498,53.1453646 L40.2534701,53.7169889 L40.2534701,53.7169889 L44.3238498,53.1453646 Z M44.9899866,54.6599488 L42.4953749,57.9315643 L42.4955167,57.9317062 L44.9899866,54.6599488 Z M47.5136532,55.4266095 L47.878186,51.3263021 L47.878186,51.3263021 L47.5136532,55.4266095 Z M51.8100942,55.1596055 L52.527963,59.2129281 L52.527963,59.2129281 L51.8100942,55.1596055 Z M57.9415296,53.2536709 L59.669517,56.9887463 L64.1083979,54.9287982 L61.317001,50.9050007 L57.9415296,53.2536709 Z M55.4623667,44.7670311 L59.5725728,44.7566689 L55.4623667,44.7670311 Z M59.3052677,33.6493868 L56.2058888,30.9457049 L56.2058888,30.9457049 L59.3052677,33.6493868 Z M71.2007712,30.5059503 L72.8693732,26.7440468 L71.2007712,30.5059503 Z M75.5395899,34.8787977 L71.7664206,36.5111986 L71.7664206,36.5111986 L75.5395899,34.8787977 Z M75.8009423,41.8775394 L71.8474909,40.7517505 L75.8009423,41.8775394 Z M66.6740169,53.9165676 L64.3418293,50.5269934 L58.2337795,54.7424206 L65.0409895,57.6942274 L66.6740169,53.9165676 Z M86.340503,48.5158754 L89.3021191,51.370306 L90.8019191,49.8093048 L90.3666625,47.6874674 L86.340503,48.5158754 Z M85.7490585,41.9415579 L89.8582725,42.0342499 L89.8582725,42.033966 L85.7490585,41.9415579 Z M85.7523183,41.8573828 L89.85643,42.08308 L89.8687606,41.8575248 L89.85643,41.6319695 L85.7523183,41.8573828 Z M85.7484915,41.715151 L89.8586977,41.715151 L89.8586977,41.715151 L85.7484915,41.715151 Z M87.7823349,22.3663732 L83.7519235,21.5591154 L87.7823349,22.3663732 Z M93.503175,8.41553375 L90.3125211,5.8205414 L90.3125211,5.8205414 L93.503175,8.41553375 Z M103.22523,5.20364997 L101.442109,8.91260694 L101.442109,8.91260694 L103.22523,5.20364997 Z M107.380223,13.987046 L103.270017,13.9649022 L103.270017,13.9649022 L107.380223,13.987046 Z M105.000555,27.3569778 L108.958826,28.4658749 L108.958826,28.4658749 L105.000555,27.3569778 Z M92.2828689,49.6193785 L95.5035698,52.176996 L95.5035698,52.176854 L92.2828689,49.6193785 Z M92.0012489,49.9218695 L89.2311117,46.8807774 L87.2237721,48.7148864 L88.1223482,51.28315 L92.0012489,49.9218695 Z M92.4301277,51.0101841 L96.1878482,49.3421542 L96.1878482,49.3421542 L92.4301277,51.0101841 Z M98.8515453,55.7688459 L98.9543004,51.653634 L98.9541587,51.653634 L98.8515453,55.7688459 Z M110.497177,51.0696603 L113.153504,54.2108256 L113.153504,54.2108256 L110.497177,51.0696603 Z M112.813916,48.8860756 L115.772555,51.743629 L117.427268,50.0250656 L116.759572,47.7330327 L112.813916,48.8860756 Z M112.51217,47.7287743 L116.515936,46.7981638 L116.5097,46.7711937 L116.503038,46.7442236 L112.51217,47.7287743 Z M112.115181,45.5867803 L116.194631,45.083433 L116.18967,45.0435456 L116.184001,45.0039422 L112.115181,45.5867803 Z M112.042898,35.3885326 L116.135246,35.771792 L116.135246,35.771792 L112.042898,35.3885326 Z M114.584706,20.7028856 L110.578672,19.7816437 L110.578672,19.7816437 L114.584706,20.7028856 Z M119.772211,8.71799636 L122.984266,11.2863167 L122.984266,11.2863167 L119.772211,8.71799636 Z M128.670666,5.15998679 L130.00464,1.2663272 L130.00464,1.2663272 L128.670666,5.15998679 Z M131.776706,7.18277292 L134.862479,4.46357615 L134.862479,4.46357615 L131.776706,7.18277292 Z M133.491371,10.8397486 L137.522349,10.0354149 L137.522349,10.0354007 L133.491371,10.8397486 Z M132.443268,21.8963837 L128.45651,20.8947992 L128.45651,20.8947992 L132.443268,21.8963837 Z M122.403877,44.8747696 L125.857584,47.1064746 L125.857584,47.1063327 L122.403877,44.8747696 Z M122.334995,44.9762623 L118.990422,42.5835883 L118.798659,42.8522957 L118.652251,43.1482571 L122.334995,44.9762623 Z M122.165485,45.268817 L118.753163,42.9739451 L118.753163,42.9739451 L122.165485,45.268817 Z M118.735164,49.9062552 L115.567754,47.2827739 L113.851105,49.361885 L115.069285,51.768044 L118.735164,49.9062552 Z M120.091248,52.1136872 L123.392452,49.6613951 L123.392452,49.6613951 L120.091248,52.1136872 Z M125.539114,55.6992914 L125.709475,51.5863507 L125.709475,51.5863507 L125.539114,55.6992914 Z M133.386773,52.495811 L130.473629,49.5916987 L130.473629,49.5916987 L133.386773,52.495811 Z M139.447484,41.2815001 L135.53797,40.0107824 L135.53797,40.0107824 L139.447484,41.2815001 Z M139.549247,41.0164834 L143.296622,42.7093542 L143.565911,42.1121793 L143.635359,41.4609223 L139.549247,41.0164834 Z M139.634286,40.5873749 L143.585753,41.7184158 L143.585753,41.7182739 L139.634286,40.5873749 Z M143.279614,33.9999981 L140.211132,31.2608293 L143.279614,33.9999981 Z M152.524743,29.7943654 L152.463799,33.910429 L152.589939,33.9122743 L152.71608,33.9064545 L152.524743,29.7943654 Z M154.809451,29.9502242 L154.191503,34.0198709 L154.238274,34.0269682 L154.285045,34.033072 L154.809451,29.9502242 Z M157.242976,30.4691858 L156.026922,34.4015688 L156.026922,34.4015688 L157.242976,30.4691858 Z M160.429095,31.9501284 L158.307378,35.4762564 L158.307378,35.4763984 L160.429095,31.9501284 Z M160.780588,32.1634761 L162.916478,28.6468585 L162.915061,28.6457229 L162.913643,28.6444454 L160.780588,32.1634761 Z M160.783423,32.1651794 L158.646116,35.681797 L158.665958,35.6934367 L158.684383,35.7047926 L160.783423,32.1651794 Z M160.783423,32.1653214 L162.916478,28.6464327 L162.89947,28.6359285 L162.882463,28.6257083 L160.783423,32.1653214 Z M162.260262,32.9589522 L163.748441,29.1213904 L163.748441,29.1213904 L162.260262,32.9589522 Z M164.41316,33.2702439 L164.520876,37.3853139 L164.41316,33.2702439 Z M171.336731,29.6976989 L174.561117,32.2502062 L174.561117,32.2502062 L171.336731,29.6976989 Z M174.919697,29.2773911 L177.469442,26.0477923 L177.469442,26.0477923 L174.919697,29.2773911 Z M175.339222,32.8662602 L172.114836,30.3138948 L172.114836,30.3138948 L175.339222,32.8662602 Z M164.547805,38.3785234 L164.438672,34.2634535 L164.547805,38.3785234 Z M164.065919,38.3830657 L164.099934,34.2667183 L158.55399,34.2208691 L160.122955,39.5474645 L164.065919,38.3830657 Z M164.689536,44.7037223 L160.596338,44.3370709 L160.584999,44.4631206 L160.580747,44.5897382 L164.689536,44.7037223 Z M161.911604,54.1997537 L165.410948,56.3584975 L165.410948,56.3583556 L161.911604,54.1997537 Z M150.845228,60.733758 L151.028061,64.8461309 L150.845228,60.733758 Z M143.964176,59.0413131 L146.204947,55.5904174 L146.204947,55.5904174 L143.964176,59.0413131 Z M139.982945,54.1079134 L136.190359,55.6956008 L136.190359,55.6956008 L139.982945,54.1079134 Z M139.567673,52.9758788 L143.48229,51.7230465 L140.92971,43.720875 L136.179871,50.6449522 L139.567673,52.9758788 Z M137.003187,56.1007201 L139.916331,59.0046905 L139.916331,59.0046905 L137.003187,56.1007201 Z M125.327367,60.8050158 L125.156865,64.9179566 L125.157006,64.9179566 L125.327367,60.8050158 Z M115.993089,55.158044 L119.294293,52.70561 L115.993089,55.158044 Z M115.084167,53.8181977 L118.574157,51.6438396 L115.929877,47.3865379 L112.275195,50.8128765 L115.084167,53.8181977 Z M113.794696,54.9691114 L116.451023,58.1104186 L116.451165,58.1104186 L113.794696,54.9691114 Z M98.7239872,60.8774093 L98.621232,64.9926212 L98.7239872,60.8774093 Z M88.1376552,53.8681634 L91.8067937,52.0127622 L89.4033152,47.2454416 L85.4120216,50.7869001 L88.1376552,53.8681634 Z M61.753675,57.0284917 L64.0630439,53.6231613 L61.9309808,52.1728795 L59.6988554,53.4633279 L61.753675,57.0284917 Z M52.7011585,60.1912331 L51.9832898,56.1380524 L52.7011585,60.1912331 Z M47.0609636,60.5165777 L46.6962891,64.6167431 L46.6962891,64.6167431 L47.0609636,60.5165777 Z M41.8933006,58.7213625 L39.3988307,61.9929779 L39.3988307,61.9929779 L41.8933006,58.7213625 Z M39.2709891,53.8551042 L43.3413688,53.283338 L43.3413688,53.283338 L39.2709891,53.8551042 Z M39.3958543,48.626169 L35.3178212,48.1116078 L35.3178212,48.1116078 L39.3958543,48.626169 Z M39.7571273,46.0958055 L43.8209873,46.7122853 L43.8235385,46.6951096 L43.8259479,46.6779339 L39.7571273,46.0958055 Z M39.7571273,46.0955216 L35.6979444,45.4488069 L35.692842,45.4810291 L35.6883066,45.5133932 L39.7571273,46.0955216 Z M39.7571273,46.0952377 L43.8163102,46.7419524 L43.8187196,46.7269059 L43.8209873,46.7118594 L39.7571273,46.0952377 Z M39.7670485,46.0299417 L43.8309085,46.6465634 L43.8309085,46.6464214 L39.7670485,46.0299417 Z M40.1227939,43.5296712 L36.0441938,43.020646 L36.0441938,43.020646 L40.1227939,43.5296712 Z M40.2710448,39.3237546 L44.3517708,38.8313372 L44.3517708,38.8313372 L40.2710448,39.3237546 Z M39.0830535,36.3158783 L36.1835156,39.2336176 L36.1835156,39.2336176 L39.0830535,36.3158783 Z M37.2123427,35.5683806 L37.053462,39.6818891 L37.2123427,35.5683806 Z M31.3601178,38.6076273 L34.5015909,41.2621952 L34.5015909,41.2621952 L31.3601178,38.6076273 Z M27.2652187,47.8758323 L23.3143184,46.7408168 L27.2652187,47.8758323 Z M24.9883062,58.4897035 L29.0528749,59.1012151 L24.9883062,58.4897035 Z M22.0865007,60.6369495 L22.6970789,56.5660254 L22.6970789,56.5660254 L22.0865007,60.6369495 Z M19.9426738,57.730708 L15.8779634,57.1191964 L19.9426738,57.730708 Z M21.7749754,48.6361053 L25.7579069,49.6528782 L28.638311,38.3350874 L19.3088517,45.3429138 L21.7749754,48.6361053 Z M17.1871349,51.8760664 L19.4782205,55.2937462 L19.4782205,55.2937462 L17.1871349,51.8760664 Z M7.95230958,57.6885495 L5.87418935,54.1370127 L5.87418935,54.1370127 L7.95230958,57.6885495 Z M4.46138394,56.7759663 L8.00754225,54.6947261 L8.00754225,54.6947261 L4.46138394,56.7759663 Z M5.37257412,53.2797893 L3.2944539,49.7281106 L3.2944539,49.7281106 L5.37257412,53.2797893 Z M14.3431557,47.6333853 L12.0520701,44.2157054 L12.0520701,44.2157054 L14.3431557,47.6333853 Z M22.3333965,41.4992482 L25.2862253,44.3627635 L25.286367,44.3627635 L22.3333965,41.4992482 Z M22.8522746,41.085754 L24.971015,44.6133015 L26.7252226,43.5563574 L26.9399455,41.5172756 L22.8522746,41.085754 Z M23.4204751,35.4570935 L19.3383318,34.976032 L19.3339381,35.0136482 L19.3302531,35.0511224 L23.4204751,35.4570935 Z M23.4204751,35.4569515 L27.5024768,35.938013 L27.5068704,35.9003968 L27.5105555,35.8629225 L23.4204751,35.4569515 Z M24.1631469,28.1528798 L28.2498256,28.5917827 L24.1631469,28.1528798 Z M25.410807,18.2757183 L29.4711238,18.9159034 L29.4711238,18.9159034 L25.410807,18.2757183 Z M27.0891885,10.8759027 L23.2353741,9.44476966 L23.2353741,9.44476966 L27.0891885,10.8759027 Z M154.099377,35.0109512 L154.747089,30.9461308 L154.674806,30.934633 L154.602523,30.9255483 L154.099377,35.0109512 Z M147.087932,37.4003604 L144.019451,34.6611915 L144.019451,34.6611915 L147.087932,37.4003604 Z M144.539605,41.9912397 L140.588138,40.8603407 L140.588138,40.8606246 L144.539605,41.9912397 Z M144.495668,42.1299228 L140.613649,40.7792884 L140.40247,41.3866835 L140.386879,42.0294237 L144.495668,42.1299228 Z M144.429054,42.6514394 L148.431545,43.5880118 L148.431545,43.5878698 L144.429054,42.6514394 Z M144.68984,52.1371086 L148.482568,50.5494212 L148.482568,50.5494212 L144.68984,52.1371086 Z M146.74636,54.757467 L148.987131,51.3065714 L146.74636,54.757467 Z M150.618458,55.6286014 L150.435625,51.5162284 L150.618458,55.6286014 Z M157.566124,51.520061 L161.066885,53.6786629 L161.066885,53.6786629 L157.566124,51.520061 Z M159.591463,44.4988915 L163.700252,44.5878928 L163.700252,44.5877509 L159.591463,44.4988915 Z M159.59288,44.4042122 L155.501099,44.0104487 L155.486926,44.1626169 L155.484092,44.3153528 L159.59288,44.4042122 Z M159.601384,44.3098169 L163.693165,44.7035804 L163.693165,44.7034384 L159.601384,44.3098169 Z M158.468952,38.0976085 L162.081681,36.1360303 L162.081681,36.1360303 L158.468952,38.0976085 Z M117.030562,43.7266949 L112.939348,44.1220198 L114.000206,55.1327773 L120.38449,46.1060257 L117.030562,43.7266949 Z M117.929563,42.4200643 L121.341743,44.7149362 L121.341885,44.7147943 L117.929563,42.4200643 Z M117.122971,35.864342 L113.030623,35.4809407 L113.030623,35.4809407 L117.122971,35.864342 Z M119.557488,21.8465599 L115.551596,20.925318 L115.551596,20.925318 L119.557488,21.8465599 Z M123.759678,11.9062458 L126.971733,14.4744952 L126.971733,14.4744952 L123.759678,11.9062458 Z M127.014678,9.99348351 L128.348652,6.09982391 L128.348652,6.09982391 L127.014678,9.99348351 Z M127.945994,10.5583226 L124.860221,13.2774484 L124.860221,13.2775904 L127.945994,10.5583226 Z M128.487407,11.8382244 L124.456429,12.6425438 L124.456429,12.642558 L128.487407,11.8382244 Z M127.494155,20.6530619 L123.507538,19.6516194 L123.507538,19.6516194 L127.494155,20.6530619 Z M118.116365,42.1043722 L121.570072,44.3360772 L121.570214,44.3360772 L118.116365,42.1043722 Z M117.972791,42.3574653 L121.316656,44.7511329 L121.508702,44.4819997 L121.655394,44.1857544 L117.972791,42.3574653 Z M100.086733,25.980509 L104.045003,27.089406 L104.045003,27.089406 L100.086733,25.980509 Z M90.8502495,43.0629464 L86.7410355,43.1519478 L87.0043721,55.340731 L94.1722882,45.486849 L90.8502495,43.0629464 Z M102.277898,13.9595081 L98.1678337,13.9373643 L98.1678337,13.9373643 L102.277898,13.9595081 Z M101.011671,9.80787242 L102.794792,6.09891545 L102.794792,6.09891545 L101.011671,9.80787242 Z M97.4639964,11.6369138 L94.2733426,9.0419073 L94.2733426,9.0419073 L97.4639964,11.6369138 Z M92.7854479,23.3685254 L88.7551782,22.5612677 L88.7551782,22.5612677 L92.7854479,23.3685254 Z M90.8508164,41.715151 L94.9610226,41.715151 L94.9610226,41.715151 L90.8508164,41.715151 Z M90.8469897,41.856815 L86.742878,41.6319695 L86.7305473,41.856815 L86.742878,42.0818025 L90.8469897,41.856815 Z M90.8501078,42.0566777 L86.7410355,41.9637018 L86.7410355,41.9639857 L90.8501078,42.0566777 Z M37.7883385,14.0348825 L41.873033,14.4930903 L37.7883385,14.0348825 Z M28.6974129,33.9534392 L24.6074743,33.5450551 L23.3669007,46.007372 L31.7478945,36.7124808 L28.6974129,33.9534392 Z M35.8481795,9.28073466 L35.0210359,13.3129354 L35.8481795,9.28073466 Z M31.8731849,12.6524802 L35.7269993,14.0835706 L35.7269993,14.0835706 L31.8731849,12.6524802 Z M30.4510536,19.0704846 L26.3908786,18.4301576 L26.3908786,18.4301576 L30.4510536,19.0704846 Z M29.2362751,28.6978178 L33.3230956,29.1367208 L33.3230956,29.1367208 L29.2362751,28.6978178 Z M60.5646916,44.7541138 L56.4544854,44.764476 L56.4544854,44.764476 L60.5646916,44.7541138 Z M62.344836,50.6230922 L59.0902614,53.1372736 L61.2947492,55.9996532 L64.4135453,54.1801649 L62.344836,50.6230922 Z M63.1528458,37.0057452 L66.252083,39.709427 L66.252083,39.709427 L63.1528458,37.0057452 Z M69.1292273,35.1760366 L70.797971,31.4139911 L70.797971,31.4139911 L69.1292273,35.1760366 Z M70.8556556,36.905246 L67.0823447,38.5375051 L67.0823447,38.5375051 L70.8556556,36.905246 Z M70.8930727,40.4799203 L66.9396213,39.3541314 L66.9396213,39.3541314 L70.8930727,40.4799203 Z M46.9436101,15.0618756 C47.6799039,8.47719592 44.6744929,1.67769225 37.7024494,0.242939541 L36.0478788,8.30744041 C37.4323096,8.59232987 39.2189737,10.1685479 38.7742211,14.1454599 L46.9436101,15.0618756 Z M41.0769286,32.5524133 C43.6832245,28.1080242 46.1428286,22.2228638 46.9436101,15.0618756 L38.7742211,14.1454599 C38.1270762,19.9321085 36.1378782,24.7180242 33.9886655,28.3831193 L41.0769286,32.5524133 Z M45.581998,29.77648 C43.3042352,27.5058812 40.4584135,26.4993286 37.7480868,26.3569548 L37.3175073,34.5785778 C38.3077835,34.6306727 39.1408798,34.9716316 39.7829224,35.6116747 L45.581998,29.77648 Z M49.4173873,38.2201095 C49.0385397,35.0702854 47.873934,32.0611316 45.581998,29.77648 L39.7829224,35.6116747 C40.447075,36.2737198 41.0375273,37.3884367 41.2560769,39.2049442 L49.4173873,38.2201095 Z M49.2647427,44.6703646 C49.4936387,42.8301519 49.6943301,40.5219369 49.4173873,38.2201095 L41.2560769,39.2049442 C41.4099971,40.4841787 41.3146119,41.9862715 41.1074008,43.6524561 L49.2647427,44.6703646 Z M48.8756905,47.4118046 C49.0032486,46.5680662 49.1463971,45.6214156 49.2647427,44.6703646 L41.1074008,43.6524561 C41.004504,44.4788768 40.8777962,45.3203441 40.7479704,46.178845 L48.8756905,47.4118046 Z M48.8701629,47.4482852 L48.8756905,47.4116626 L40.7479704,46.178845 L40.7424429,46.2153256 L48.8701629,47.4482852 Z M48.5361024,49.7796377 C48.6263852,49.0613813 48.7400537,48.3084895 48.8701629,47.4482852 L40.7424429,46.2153256 C40.6155934,47.0543797 40.4856259,47.9117451 40.3801778,48.7505153 L48.5361024,49.7796377 Z M48.3942294,52.5735984 C48.3364031,52.1603881 48.3407967,51.3322639 48.5361024,49.7797796 L40.3801778,48.7503734 C40.1692817,50.4264943 40.0359126,52.1635109 40.2534701,53.7169889 L48.3942294,52.5735984 Z M47.4845983,51.3884753 C47.6463136,51.5121119 47.8104384,51.664564 47.9608153,51.8462573 C48.1090662,52.0252536 48.2143725,52.1971526 48.2863719,52.3415136 C48.4228591,52.6147633 48.418182,52.7450715 48.3942294,52.5735984 L40.2534701,53.7169889 C40.4778307,55.319013 41.0969127,56.8619868 42.4953749,57.9315643 L47.4845983,51.3884753 Z M47.878186,51.3263021 C47.4904093,51.2916668 47.2803636,51.2355974 47.2070885,51.2118921 C47.1723643,51.2006782 47.1828525,51.201246 47.2277813,51.2238157 C47.271718,51.2456757 47.363985,51.2960672 47.4845983,51.3883334 L42.4955167,57.9317062 C43.7924993,58.9236382 45.461243,59.3763101 47.1489787,59.5267749 L47.878186,51.3263021 Z M51.0922254,51.1064248 C49.7617942,51.3427681 48.6591251,51.3959986 47.878186,51.3263021 L47.1489787,59.5267749 C48.8532969,59.6788011 50.7132361,59.5352918 52.527963,59.2129281 L51.0922254,51.1064248 Z M56.2134006,49.5187374 C54.8363398,50.1577869 52.977251,50.7715697 51.0922254,51.1064248 L52.527963,59.2129281 C55.1146999,58.7533007 57.6526814,57.9247508 59.669517,56.9887463 L56.2134006,49.5187374 Z M51.3521605,44.7773933 C51.3609479,48.3113285 52.2352879,52.2427178 54.5660583,55.602483 L61.317001,50.9050007 C60.149419,49.2219243 59.5782421,47.0305325 59.5725728,44.7566689 L51.3521605,44.7773933 Z M56.2058888,30.9457049 C52.9513142,34.6880197 51.3399716,39.9155354 51.3520919,44.7773933 L59.5725728,44.7566689 C59.5644941,41.5333157 60.6745333,38.3424686 62.4046466,36.3530687 L56.2058888,30.9457049 Z M72.8693732,26.7440468 C67.2898392,24.2615197 60.5977149,25.895766 56.2058888,30.9457049 L62.4046466,36.3530687 C64.6550553,33.7655002 67.5579947,33.3896221 69.5320275,34.2679958 L72.8693732,26.7440468 Z M79.3129008,33.2465386 C78.0027372,30.2087114 75.6450379,27.9788516 72.8693732,26.7440468 L69.5320275,34.2679958 C70.5254218,34.7098796 71.3198255,35.4756886 71.7664206,36.5111986 L79.3129008,33.2465386 Z M79.7543937,43.0034703 C80.6961978,39.6861476 80.6258991,36.2911794 79.3129008,33.2465386 L71.7664206,36.5111986 C72.2121654,37.5447214 72.3570147,38.9568192 71.8474909,40.7517505 L79.7543937,43.0034703 Z M69.0062046,57.3061418 C73.1586467,54.4403554 77.8393211,49.7491189 79.7543937,43.0034703 L71.8474909,40.7517505 C70.6311533,45.0358804 67.5487822,48.3135997 64.3418293,50.5269934 L69.0062046,57.3061418 Z M83.3788868,45.6615868 C77.3127895,51.975146 71.5227846,51.5332622 68.3070444,50.1389079 L65.0409895,57.6942274 C71.3108964,60.4129557 80.7877562,60.2319721 89.3021191,51.370306 L83.3788868,45.6615868 Z M81.6399862,41.8488659 C81.5950574,43.8480603 81.7363634,46.5263335 82.3143434,49.3444254 L90.3666625,47.6874674 C89.9338152,45.5779795 89.8246822,43.5295292 89.8582725,42.0342499 L81.6399862,41.8488659 Z M81.6483483,41.6318276 C81.6443798,41.7035113 81.6415452,41.7760467 81.6399862,41.8491498 L89.8582725,42.033966 C89.8578473,42.0507159 89.8572804,42.0670399 89.85643,42.08308 L81.6483483,41.6318276 Z M81.6382854,41.715151 C81.6382854,41.8382199 81.6416869,41.9607209 81.6483483,42.0827961 L89.85643,41.6319695 C89.857989,41.6599333 89.8586977,41.6876131 89.8586977,41.715151 L81.6382854,41.715151 Z M83.7519235,21.5591154 C82.0205346,30.2290099 81.6382854,35.0197519 81.6382854,41.715151 L89.8586977,41.715151 C89.8586977,35.5747683 90.184963,31.3247059 91.8126047,23.1737729 L83.7519235,21.5591154 Z M90.3125211,5.8205414 C87.247016,9.6013524 85.0391267,15.112693 83.7519235,21.5591154 L91.8126047,23.1737729 C92.9542498,17.4566788 94.7769137,13.3746828 96.6939705,11.0105403 L90.3125211,5.8205414 Z M105.008209,1.494693 C98.7368847,-1.52948028 93.2389879,2.21130284 90.3125211,5.8205414 L96.6938288,11.0105403 C97.6149402,9.87454535 98.5755945,9.15901432 99.387998,8.84228595 C100.088292,8.56932011 100.712477,8.56078905 101.442109,8.91260694 L105.008209,1.494693 Z M111.490287,14.0091899 C111.510555,10.240558 110.664703,4.22232148 105.008209,1.49467881 L101.442109,8.91260694 C102.02179,9.19217335 102.431393,9.63367394 102.74717,10.4231173 C103.097955,11.3000147 103.277954,12.5044853 103.270017,13.9649022 L111.490287,14.0091899 Z M108.958826,28.4658749 C110.414972,23.2521282 111.46761,18.22192 111.490287,14.0091899 L103.270017,13.9649022 C103.253434,17.0409134 102.450243,21.2065168 101.042285,26.2480808 L108.958826,28.4658749 Z M95.5035698,52.176854 C98.6283186,48.2298504 106.286766,38.0325964 108.958826,28.4658749 L101.042285,26.2480808 C98.8689782,34.0293814 92.2360976,43.0528681 89.0623098,47.061761 L95.5035698,52.176854 Z M94.7715279,52.9629615 C95.0340142,52.7229276 95.2790675,52.4604659 95.5035698,52.176996 L89.0623098,47.061761 C89.1126244,46.9981684 89.1691752,46.9374147 89.2311117,46.8807774 L94.7715279,52.9629615 Z M96.1878482,49.3421542 C96.0794238,49.0970102 95.9766687,48.8361099 95.8802914,48.5604471 L88.1223482,51.28315 C88.2851974,51.7487391 88.4677472,52.2156058 88.6725489,52.678214 L96.1878482,49.3421542 Z M98.9541587,51.653634 C98.1617393,51.6337613 97.7420731,51.4232526 97.4437288,51.1871932 C97.0841566,50.9024457 96.639404,50.3626178 96.1878482,49.3421542 L88.6725489,52.678214 C89.468795,54.4775458 90.6162512,56.2764516 92.3460811,57.6459651 C94.1371388,59.0638828 96.3040679,59.8228782 98.7487901,59.8840578 L98.9541587,51.653634 Z M107.840708,47.928353 C104.969941,50.3634694 102.015837,51.7302859 98.9543004,51.653634 L98.7487901,59.8840578 C104.546165,60.0292705 109.40046,57.3942914 113.153504,54.2108256 L107.840708,47.928353 Z M109.855276,46.0286641 C109.216068,46.6924126 108.543695,47.3320299 107.840708,47.928353 L113.153504,54.2108256 C114.094032,53.4130784 114.96738,52.5797022 115.772555,51.743629 L109.855276,46.0286641 Z M108.508404,48.6592428 C108.615553,49.122135 108.735174,49.582472 108.868259,50.0391185 L116.759572,47.7330327 C116.671557,47.4311095 116.590345,47.1193919 116.515936,46.7981638 L108.508404,48.6592428 Z M108.035872,46.0899856 C108.144013,46.969211 108.308138,47.8468749 108.52116,48.713183 L116.503038,46.7442236 C116.363575,46.1767158 116.260678,45.6205639 116.194631,45.083433 L108.035872,46.0899856 Z M107.95055,35.0051313 C107.611954,38.6296293 107.522521,42.5008327 108.046502,46.1694765 L116.184001,45.0039422 C115.785311,42.211259 115.829673,39.0434074 116.135246,35.771792 L107.95055,35.0051313 Z M110.578672,19.7816437 C109.555514,24.2440602 108.449869,29.6580954 107.95055,35.0051313 L116.135246,35.771792 C116.583542,30.9713975 117.59281,25.9761086 118.590598,21.6241276 L110.578672,19.7816437 Z M116.560156,6.14969022 C113.812979,9.59585902 111.810458,14.4093411 110.578672,19.7816437 L118.590598,21.6241276 C119.657834,16.9695136 121.266058,13.4418241 122.984266,11.2863167 L116.560156,6.14969022 Z M130.00464,1.2663272 C123.957535,-0.811739117 119.11557,2.94381084 116.560156,6.14969022 L122.984266,11.2863167 C123.804749,10.2571092 124.66775,9.55047827 125.434091,9.19420321 C126.114968,8.87764517 126.696491,8.83364132 127.336691,9.05364639 L130.00464,1.2663272 Z M134.862479,4.46357615 C133.406048,2.80569552 131.652833,1.83274195 130.00464,1.2663272 L127.336691,9.05364639 C127.944577,9.26256532 128.374731,9.54204657 128.690933,9.90196969 L134.862479,4.46357615 Z M137.522349,10.0354007 C137.130604,8.06571732 136.31735,6.11956887 134.862479,4.46359034 L128.690933,9.90196969 C129.007561,10.2623754 129.291874,10.7966958 129.460392,11.6440822 L137.522349,10.0354007 Z M136.429884,22.8978262 C137.64849,18.0321357 138.246454,13.6754704 137.522349,10.0354149 L129.460392,11.6440822 C129.811319,13.4080405 129.613745,16.2739688 128.45651,20.8947992 L136.429884,22.8978262 Z M125.857584,47.1063327 C128.989136,42.2451845 134.181035,31.8770252 136.429884,22.8978262 L128.45651,20.8947992 C126.474682,28.8081113 121.715205,38.3505597 118.950028,42.6430645 L125.857584,47.1063327 Z M125.679428,47.3690783 C125.740797,47.2830578 125.800183,47.1956179 125.857584,47.1064746 L118.95017,42.6429226 C118.962926,42.6230499 118.97639,42.6033191 118.990422,42.5835883 L125.679428,47.3690783 Z M125.577665,47.5636888 C125.741931,47.3186868 125.888623,47.0650258 126.017598,46.8044095 L118.652251,43.1482571 C118.68244,43.0872195 118.716313,43.0290209 118.753163,42.9739451 L125.577665,47.5636888 Z M121.902573,52.5297365 C123.448294,50.6577275 124.680931,48.9011221 125.577665,47.5636888 L118.753163,42.9739451 C117.942319,44.1831993 116.87735,45.6969319 115.567754,47.2827739 L121.902573,52.5297365 Z M123.392452,49.6613951 C123.030896,49.1732362 122.695985,48.6271626 122.401042,48.0446084 L115.069285,51.768044 C115.558825,52.7348513 116.133687,53.6797985 116.789902,54.5659793 L123.392452,49.6613951 Z M125.709475,51.5863507 C125.638467,51.5833698 124.69397,51.4188522 123.392452,49.6613951 L116.789902,54.5659793 C118.872785,57.3783933 121.844464,59.6657419 125.368611,59.8122322 L125.709475,51.5863507 Z M130.473629,49.5916987 C128.962065,51.1128125 127.495714,51.6605895 125.709475,51.5863507 L125.368611,59.8122322 C129.62806,59.9893831 133.286002,58.4323565 136.299917,55.3997813 L130.473629,49.5916987 Z M135.53797,40.0107824 C133.970422,44.848935 132.176955,47.8779615 130.473629,49.5916987 L136.299917,55.3997813 C139.268194,52.4130553 141.581674,48.0324009 143.357566,42.5520759 L135.53797,40.0107824 Z M135.803149,39.3236126 C135.702661,39.5464708 135.614079,39.7758586 135.53797,40.0107824 L143.357566,42.5520759 C143.340558,42.6045966 143.319299,42.6571174 143.296622,42.7093542 L135.803149,39.3236126 Z M143.635359,41.4609223 C143.626855,41.5493559 143.609848,41.6356602 143.585753,41.7184158 L135.681544,39.4564758 C135.576521,39.8248307 135.504096,40.1978698 135.463561,40.5719025 L143.635359,41.4609223 Z M143.585753,41.7182739 C143.958507,40.4132048 144.871256,38.3976864 146.346678,36.739167 L140.211132,31.2608293 C137.775481,33.9971592 136.33294,37.1731017 135.681544,39.4566178 L143.585753,41.7182739 Z M146.346678,36.739167 C147.809345,35.0965458 149.719882,33.9080159 152.149155,33.9080159 L152.149155,25.675037 C146.701006,25.675037 142.718358,28.4434472 140.211132,31.2608293 L146.346678,36.739167 Z M152.149155,33.9080159 C152.256871,33.9080159 152.361752,33.9088676 152.463799,33.910429 L152.587105,25.6783018 C152.442539,25.6761726 152.296556,25.675037 152.149155,25.675037 L152.149155,33.9080159 Z M152.645215,25.675037 C152.541751,25.675037 152.438287,25.6774502 152.334823,25.6822764 L152.71608,33.9064545 C152.691986,33.9075901 152.669309,33.9080159 152.645215,33.9080159 L152.645215,25.675037 Z M155.427399,25.8805776 C154.533075,25.7441657 153.604735,25.675037 152.645215,25.675037 L152.645215,33.9080159 C153.210722,33.9080159 153.723789,33.948613 154.191503,34.0198709 L155.427399,25.8805776 Z M154.285045,34.033072 C154.96819,34.1209378 155.536532,34.2496845 156.026922,34.4015688 L158.457613,26.5368028 C157.491006,26.2372927 156.457785,26.0121633 155.333856,25.8673765 L154.285045,34.033072 Z M156.026922,34.4015688 C156.936837,34.6837612 157.612895,35.0573681 158.307378,35.4762564 L162.549394,28.4240003 C161.642314,27.877075 160.304371,27.1092787 158.457613,26.5368028 L156.026922,34.4015688 Z M158.307378,35.4763984 C158.426432,35.5480821 158.536983,35.6155073 158.647533,35.6825067 L162.913643,28.6444454 C162.80451,28.5785816 162.682622,28.5040589 162.549394,28.4238583 L158.307378,35.4763984 Z M158.643281,35.6800936 L158.646116,35.681797 L162.919313,28.6485619 L162.916478,28.6468585 L158.643281,35.6800936 Z M158.684383,35.7047926 L158.684383,35.7049345 L162.882463,28.6257083 L162.881045,28.6255663 L158.684383,35.7047926 Z M158.650368,35.6842101 C159.204537,36.0213364 159.89902,36.4566906 160.773502,36.7965139 L163.748441,29.1213904 C163.71726,29.1094668 163.670488,29.0900199 163.558521,29.0281306 C163.418207,28.9503432 163.248129,28.8478568 162.916478,28.6464327 L158.650368,35.6842101 Z M160.773502,36.7965139 C161.802471,37.1965232 162.984509,37.425769 164.520876,37.3853139 L164.305444,29.155174 C164.010643,29.1628392 163.856156,29.1431084 163.800881,29.1338818 C163.756944,29.1266425 163.751275,29.1226679 163.748441,29.1213904 L160.773502,36.7965139 Z M164.520876,37.3853139 C167.086211,37.3176047 169.29155,36.3777676 170.900199,35.3953461 C172.491841,34.422719 173.78443,33.234615 174.561117,32.2502062 L168.112346,27.1453335 C167.986205,27.3055927 167.447626,27.860751 166.619916,28.3666533 C165.807796,28.8627613 165.002762,29.1367208 164.305444,29.155174 L164.520876,37.3853139 Z M174.561117,32.2502062 C174.028208,32.92673 173.047428,33.0417078 172.37137,32.507132 L177.469442,26.0477923 C174.582377,23.7631406 170.392801,24.2545643 168.112346,27.1453335 L174.561117,32.2502062 Z M172.37137,32.50699 C171.696729,31.9724142 171.581927,30.9904185 172.114836,30.3138948 L178.565025,35.4187675 C180.845481,32.5279983 180.355091,28.3324439 177.469442,26.0477923 L172.37137,32.50699 Z M172.114836,30.3138948 C171.109961,31.5883031 168.105259,34.1669289 164.438672,34.2634535 L164.65552,42.4935934 C171.698146,42.3079255 176.746613,37.7220143 178.565025,35.4187675 L172.114836,30.3138948 Z M164.438672,34.2634535 C164.321035,34.2665763 164.20765,34.26757 164.099934,34.2667183 L164.031903,42.4994132 C164.237413,42.5011166 164.445758,42.4991293 164.65552,42.4935934 L164.438672,34.2634535 Z M168.782734,45.0705157 C168.976906,42.9041067 168.849348,40.0757946 168.007464,37.2185251 L160.122955,39.5474645 C160.628936,41.2650342 160.71114,43.03697 160.596338,44.3370709 L168.782734,45.0705157 Z M165.410948,56.3583556 C167.87282,52.3549986 168.713286,47.8779615 168.798325,44.8178485 L160.580747,44.5897382 C160.525472,46.5797059 159.940122,49.5550761 158.410842,52.0411518 L165.410948,56.3583556 Z M151.028061,64.8461309 C158.079191,64.5312905 162.749235,60.6863474 165.410948,56.3584975 L158.410842,52.0410099 C156.899987,54.4988379 154.501894,56.449912 150.662395,56.6212431 L151.028061,64.8461309 Z M141.723405,62.4922087 C144.453149,64.2702483 147.652023,64.9968796 151.028061,64.8461309 L150.662395,56.6212431 C148.706503,56.708683 147.267931,56.2826973 146.204947,55.5904174 L141.723405,62.4922087 Z M136.190359,55.6956008 C137.25476,58.245837 139.014212,60.7277962 141.723405,62.4922087 L146.204947,55.5904174 C145.137711,54.8950146 144.33126,53.8543944 143.774256,52.520226 L136.190359,55.6956008 Z M135.652347,54.228853 C135.809669,54.7219801 135.988392,55.2118423 136.190359,55.6956008 L143.774256,52.520368 C143.667958,52.2658554 143.57158,51.9999869 143.48229,51.7230465 L135.652347,54.228853 Z M139.916331,59.0046905 C141.028922,57.8854312 142.038048,56.6442387 142.955049,55.3069474 L136.179871,50.6449522 C135.510616,51.6202763 134.813298,52.4689828 134.090043,53.1967498 L139.916331,59.0046905 Z M125.157006,64.9179566 C130.955657,65.1589841 135.973085,62.9724185 139.916331,59.0046905 L134.090043,53.1967498 C131.645463,55.6564232 128.818633,56.8301904 125.49787,56.6920751 L125.157006,64.9179566 Z M112.691885,57.6103362 C115.238512,61.0490243 119.465363,64.6813294 125.156865,64.9179566 L125.49787,56.6920751 C123.286579,56.6000929 121.083367,55.1214215 119.294293,52.70561 L112.691885,57.6103362 Z M111.594035,55.9925558 C111.937875,56.5461527 112.304108,57.0868323 112.691885,57.6103362 L119.294293,52.70561 C119.044138,52.367774 118.803478,52.0130461 118.574157,51.6438396 L111.594035,55.9925558 Z M116.451165,58.1104186 C116.94935,57.6876978 117.430102,57.2574537 117.892997,56.8233769 L112.275195,50.8128765 C111.905985,51.1592294 111.526854,51.498343 111.138369,51.8278041 L116.451165,58.1104186 Z M98.621232,64.9926212 C106.121366,65.1804183 112.155716,61.7537957 116.451023,58.1104186 L111.138369,51.8278041 C107.719102,54.7282258 103.585511,56.8812917 98.8267423,56.7621974 L98.621232,64.9926212 Z M84.4686584,55.7234226 C86.7825627,60.3133083 91.2417112,64.807805 98.621232,64.9926212 L98.8267423,56.7621974 C95.3145003,56.6741897 93.181445,54.7398655 91.8067937,52.0127622 L84.4686584,55.7234226 Z M59.4443061,60.4336801 C66.9044719,65.5086018 79.6772919,66.8747085 90.8632888,56.9492847 L85.4120216,50.7869001 C77.2029478,58.0709571 68.5974517,56.7076894 64.0630439,53.6231613 L59.4443061,60.4336801 Z M53.4190273,64.2444137 C57.0853312,63.5931567 60.9229881,62.2618273 63.8086363,60.5935135 L59.6988554,53.4633279 C57.7632317,54.5824453 54.8581664,55.6273238 51.9832898,56.1380524 L53.4190273,64.2444137 Z M46.6962891,64.6167431 C48.973485,64.8198706 51.3035467,64.6202918 53.4190273,64.2444137 L51.9832898,56.1380524 C50.3523883,56.4277681 48.7797384,56.537068 47.4256381,56.4162703 L46.6962891,64.6167431 Z M39.3988307,61.9929779 C41.7562465,63.7960003 44.4983209,64.420713 46.6962891,64.6167431 L47.4256381,56.4162703 C46.0522623,56.2937693 45.038317,55.9471325 44.3879123,55.449747 L39.3988307,61.9929779 Z M35.2006094,54.4267284 C35.5305598,56.7830637 36.5459224,59.8110966 39.3988307,61.9929779 L44.3879123,55.449747 C43.8562784,55.0430662 43.4958558,54.3864152 43.3413688,53.283338 L35.2006094,54.4267284 Z M35.3178212,48.1116078 C35.0961535,49.8738911 34.8845487,52.1701825 35.2006094,54.4267284 L43.3413688,53.283338 C43.1841888,52.1615236 43.2689441,50.7684468 43.4737457,49.1408721 L35.3178212,48.1116078 Z M35.6932672,45.4791838 C35.5693941,46.2985071 35.4313479,47.2093869 35.3178212,48.1116078 L43.4737457,49.1408721 C43.572249,48.3580294 43.6942796,47.5493521 43.8209873,46.7122853 L35.6932672,45.4791838 Z M35.6883066,45.5133932 L35.6881649,45.5136771 L43.8259479,46.6779339 L43.8260896,46.67765 L35.6883066,45.5133932 Z M35.6980861,45.448523 L35.6979444,45.4488069 L43.8163102,46.7422363 L43.8163102,46.7419524 L35.6980861,45.448523 Z M35.7031884,45.4133199 L35.693409,45.478616 L43.8209873,46.7118594 L43.8309085,46.6465634 L35.7031884,45.4133199 Z M36.0441938,43.020646 C35.9509346,43.7695631 35.8344316,44.5455924 35.7031884,45.4134619 L43.8309085,46.6464214 C43.9598839,45.7937403 44.0928278,44.9122438 44.2015357,44.0385544 L36.0441938,43.020646 Z M36.1903187,39.8161719 C36.2675622,40.4580603 36.2386491,41.4575156 36.0441938,43.020646 L44.2015357,44.0385544 C44.4168255,42.3079255 44.5524623,40.4993672 44.3517708,38.8313372 L36.1903187,39.8161719 Z M36.1835156,39.2336176 C36.0273278,39.0779008 35.9926036,38.979247 36.0151389,39.0306321 C36.0410757,39.0896824 36.1310751,39.3227609 36.1903187,39.8161719 L44.3517708,38.8313372 C44.0718516,36.504669 43.2617158,34.673399 41.9825913,33.3982809 L36.1835156,39.2336176 Z M37.053462,39.6818891 C37.0504857,39.6817472 36.9244866,39.6757854 36.7310234,39.5970043 C36.528206,39.5143906 36.3365854,39.3862116 36.1835156,39.2336176 L41.9825913,33.3982809 C40.6968054,32.1166333 39.0598095,31.520452 37.3712235,31.455014 L37.053462,39.6818891 Z M34.5015909,41.2621952 C34.9884377,40.6841833 35.5659926,40.2539392 36.1072642,39.9842382 C36.3745693,39.851091 36.6077172,39.7696129 36.7884246,39.7250413 C36.9742342,39.6790502 37.0625328,39.682173 37.053462,39.6818891 L37.3712235,31.455014 C34.0955309,31.3281126 30.5625961,33.1708804 28.2187865,35.9530595 L34.5015909,41.2621952 Z M31.2159772,49.0109898 C32.3506775,45.0495074 33.5760859,42.3607301 34.5015909,41.2621952 L28.2187865,35.9530595 C26.0732589,38.499605 24.4726879,42.6965789 23.3143184,46.7408168 L31.2159772,49.0109898 Z M29.0528749,59.1012151 C29.4369666,56.5406167 30.1631975,52.6868729 31.2159772,49.0109898 L23.3143184,46.7408168 C22.1359649,50.8546092 21.3439707,55.076282 20.9237375,57.8781919 L29.0528749,59.1012151 Z M21.4759224,64.7077317 C25.1141635,65.2550829 28.5065009,62.7450179 29.0528749,59.1012151 L20.9237375,57.8781919 C21.0515791,57.0255108 21.8455575,56.4379884 22.6970789,56.5660254 L21.4759224,64.7077317 Z M15.8779634,57.1191964 C15.3314477,60.7628573 17.8378231,64.1603806 21.4759224,64.7077317 L22.6970789,56.5660254 C23.5486002,56.6942043 24.1350841,57.4893965 24.0072425,58.3420776 L15.8779634,57.1191964 Z M17.7921856,47.6193324 C16.8775939,51.2124599 16.2451891,54.6713047 15.8779634,57.1191964 L24.0072425,58.3420776 C24.3420117,56.1099467 24.9242437,52.9280424 25.7579069,49.6528782 L17.7921856,47.6193324 Z M19.4782205,55.2937462 C21.0756734,54.2197684 22.7218818,53.0704161 24.2410991,51.9292969 L19.3088517,45.3429138 C17.9404365,46.3707586 16.4193768,47.4342324 14.8960493,48.4583865 L19.4782205,55.2937462 Z M10.0304298,61.2400862 C12.3239107,59.8939942 15.9527975,57.6642764 19.4782205,55.2937462 L14.8961911,48.4583865 C11.5322991,50.7201845 8.04838919,52.860901 5.87418935,54.1370127 L10.0304298,61.2400862 Z M0.915225636,58.8573486 C2.77532069,62.036272 6.8563302,63.1031525 10.0304298,61.2400862 L5.87418935,54.1370127 C6.61705951,53.7009487 7.57220055,53.9506351 8.00754225,54.6947261 L0.915225636,58.8573486 Z M3.2944539,49.7281106 C0.120354286,51.591035 -0.944865164,55.6782831 0.915225636,58.8573486 L8.00752807,54.6947261 C8.44286977,55.4386751 8.19356451,56.395262 7.45069435,56.831326 L3.2944539,49.7281106 Z M12.0520701,44.2157054 C8.78856645,46.4100782 5.39461333,48.4955769 3.2944539,49.7281106 L7.45069435,56.831326 C9.67014898,55.52867 13.2090223,53.35417 16.6340996,51.0512071 L12.0520701,44.2157054 Z M19.3805677,38.635875 C18.2030645,39.85393 15.4832419,41.908768 12.0520701,44.2157054 L16.6340996,51.0512071 C20.0189252,48.7753562 23.4277034,46.285164 25.2862253,44.3627635 L19.3805677,38.635875 Z M20.7336759,37.5582064 C20.2447031,37.8528903 19.7890371,38.213296 19.3805677,38.635875 L25.286367,44.3627635 C25.1941,44.4581524 25.0879433,44.5427534 24.971015,44.6133015 L20.7336759,37.5582064 Z M19.3302531,35.0511224 C19.1359396,37.0151137 18.949563,38.8990464 18.7647454,40.6542323 L26.9399455,41.5172756 C27.1278811,39.7317128 27.3168088,37.8212359 27.5105555,35.8630645 L19.3302531,35.0511224 Z M19.3383318,34.976032 L19.3383318,34.976032 L27.5024768,35.938013 L27.5024768,35.938013 L19.3383318,34.976032 Z M20.0763264,27.7139768 C19.8115724,30.1867095 19.5653852,32.6753402 19.3302531,35.0509805 L27.5105555,35.8629225 C27.7462545,33.4818883 27.9891819,31.0261894 28.2498256,28.5917827 L20.0763264,27.7139768 Z M21.350632,17.6353913 C20.8687458,20.7011822 20.4519142,24.2060181 20.0763264,27.7139768 L28.2498256,28.5917827 C28.6210198,25.1248469 29.0208436,21.7792766 29.4711238,18.9159034 L21.350632,17.6353913 Z M23.2353741,9.44476966 C22.4014275,11.6972559 21.8126759,14.6966436 21.350632,17.6353913 L29.4711238,18.9159034 C29.9257976,16.0237147 30.4164712,13.7289847 30.9430028,12.3070357 L23.2353741,9.44476966 Z M37.7024494,0.242939541 C31.090545,-1.11770926 25.4684917,3.41267898 23.2353741,9.44476966 L30.9430028,12.3070357 C32.220143,8.85714789 34.5697636,8.00324604 36.0478788,8.30744041 L37.7024494,0.242939541 Z M154.602523,30.9255483 C153.865521,30.8344178 153.054818,30.7851619 152.149155,30.7851619 L152.149155,39.0181407 C152.757182,39.0181407 153.230565,39.0513565 153.594814,39.0964959 L154.602523,30.9255483 Z M152.149155,30.7851619 C148.580363,30.7851619 145.883217,32.567034 144.019451,34.6611915 L150.156414,40.1395292 C150.955778,39.2414248 151.577978,39.0181407 152.149155,39.0181407 L152.149155,30.7851619 Z M144.019451,34.6611915 C142.179779,36.7283789 141.065772,39.1839359 140.588138,40.8603407 L148.491072,43.1221387 C148.690913,42.4253164 149.274846,41.1297578 150.156414,40.1395292 L144.019451,34.6611915 Z M140.588138,40.8606246 C140.595224,40.8332286 140.603728,40.8061166 140.613649,40.7792884 L148.379104,43.4805572 C148.418789,43.3625985 148.457056,43.2430783 148.491072,43.1219968 L140.588138,40.8606246 Z M148.431545,43.5878698 C148.536426,43.137611 148.594536,42.6828099 148.604457,42.2304219 L140.386879,42.0294237 C140.389714,41.9216852 140.40247,41.816076 140.426564,41.7148671 L148.431545,43.5878698 Z M148.482568,50.5494212 C147.909974,49.1783463 147.72714,46.606818 148.431545,43.5880118 L140.426564,41.7148671 C139.498224,45.6949446 139.420839,50.1858926 140.898529,53.724654 L148.482568,50.5494212 Z M148.987131,51.3065714 C148.934691,51.2725039 148.722094,51.1240264 148.482568,50.5494212 L140.898529,53.724654 C141.648287,55.5221404 142.816153,57.1084083 144.505589,58.2083627 L148.987131,51.3065714 Z M150.435625,51.5162284 C149.882873,51.5409274 149.528545,51.4882647 149.321617,51.4370215 C149.121776,51.3876236 149.025399,51.3315542 148.987131,51.3065714 L144.505589,58.2083627 C146.199278,59.3115819 148.303987,59.8525454 150.801291,59.7409743 L150.435625,51.5162284 Z M154.066779,49.3613172 C153.278753,50.642681 152.296556,51.433047 150.435625,51.5162284 L150.801291,59.7409743 C155.852593,59.5154191 159.115246,56.8514826 161.066885,53.6786629 L154.066779,49.3613172 Z M155.481257,44.4098902 C155.452911,45.7159529 155.031969,47.7923669 154.066779,49.3613172 L161.066885,53.6786629 C162.973171,50.5786625 163.647811,46.9832638 163.700252,44.5878928 L155.481257,44.4098902 Z M155.484092,44.3153528 L155.481257,44.4100321 L163.700252,44.5877509 L163.701669,44.4930716 L155.484092,44.3153528 Z M155.51102,43.9161953 L155.501099,44.0104487 L163.684661,44.7979757 L163.693165,44.7035804 L155.51102,43.9161953 Z M154.854805,40.0590447 C155.108504,40.5266212 155.316849,41.1683677 155.435903,41.9221111 C155.55354,42.6696088 155.562044,43.385736 155.51102,43.9163373 L163.693165,44.7034384 C163.914266,42.4006175 163.639307,39.0144501 162.081681,36.1360303 L154.854805,40.0590447 Z M153.450248,39.0759135 C153.96615,39.1585272 154.21418,39.3077144 154.344572,39.4077877 C154.491973,39.5206363 154.664885,39.7081495 154.854805,40.0590447 L162.081681,36.1360303 C160.783423,33.7362589 158.504384,31.547706 154.747089,30.9461308 L153.450248,39.0759135 Z M120.38449,46.1060257 C120.733858,45.612189 121.05332,45.1450384 121.341743,44.7149362 L114.517242,40.1251925 C114.259574,40.5095874 113.97923,40.9191071 113.676492,41.347222 L120.38449,46.1060257 Z M113.030623,35.4809407 C112.749995,38.485836 112.679554,41.4251514 112.939348,44.1220198 L121.121776,43.331228 C120.926896,41.3083283 120.966013,38.9182094 121.215319,36.2477433 L113.030623,35.4809407 Z M115.551596,20.925318 C114.544171,25.3190317 113.498336,30.4731603 113.030623,35.4809407 L121.215319,36.2477433 C121.632009,31.7867463 122.581324,27.0516479 123.563522,22.7678019 L115.551596,20.925318 Z M120.547481,9.33793966 C118.439087,11.982997 116.681194,15.998306 115.551596,20.925318 L123.563522,22.7678019 C124.52857,18.5586205 125.892025,15.8291041 126.971733,14.4744952 L120.547481,9.33793966 Z M128.348652,6.09982391 C125.473776,5.11186645 122.697261,6.64118486 120.547481,9.33793966 L126.971733,14.4744952 C127.550564,13.7484316 127.74431,13.7599294 127.474454,13.8783139 C127.322518,13.9450295 127.065418,14.0257978 126.721152,14.041554 C126.376745,14.0573103 126.021992,14.0045056 125.680703,13.8871147 L128.348652,6.09982391 Z M131.031908,7.83914006 C130.285268,6.98929792 129.354944,6.44563742 128.348652,6.09983811 L125.680703,13.8871147 C125.677302,13.8859791 125.566043,13.8475112 125.399225,13.7421859 C125.220077,13.6289115 125.031858,13.4729107 124.860221,13.2774484 L131.031908,7.83914006 Z M132.518386,11.0339049 C132.264545,9.75776481 131.778548,8.68902479 131.031767,7.83911167 L124.860221,13.2775904 C124.6866,13.0799989 124.571231,12.8890506 124.502491,12.740644 C124.439705,12.604885 124.438996,12.5545787 124.456429,12.6425438 L132.518386,11.0339049 Z M131.480913,21.6546464 C132.660825,16.9431113 133.011043,13.5106689 132.518386,11.0338907 L124.456429,12.642558 C124.574916,13.2381289 124.628632,15.1751501 123.507538,19.6516194 L131.480913,21.6546464 Z M121.570214,44.3360772 C124.474287,39.8278116 129.397747,29.9720842 131.480913,21.6546464 L123.507538,19.6516194 C121.691394,26.9031704 117.200356,35.9331867 114.662658,39.8726671 L121.570214,44.3360772 Z M121.655394,44.1857544 C121.629457,44.2381332 121.600969,44.2883827 121.570072,44.3360772 L114.662658,39.8726671 C114.525462,40.085589 114.401164,40.3048985 114.290188,40.5293182 L121.655394,44.1857544 Z M121.341885,44.7147943 C121.333664,44.7270018 121.32516,44.7392093 121.316656,44.7511329 L114.628784,39.9639396 C114.590942,40.0170282 114.553667,40.0708264 114.5171,40.1253344 L121.341885,44.7147943 Z M96.1284628,24.8716119 C94.7050559,29.9681097 90.8226119,36.1100538 87.5282108,40.6389019 L94.1722882,45.486849 C97.5230983,40.8804973 102.193852,33.7173799 104.045003,27.089406 L96.1284628,24.8716119 Z M98.1678337,13.9373643 C98.1550779,16.3066169 97.5073661,19.9345216 96.1284628,24.8716119 L104.045003,27.089406 C105.471245,21.9831138 106.369254,17.4891849 106.388104,13.981652 L98.1678337,13.9373643 Z M99.2285504,13.5167726 C98.8821592,13.3498419 98.5899094,13.1265578 98.3673913,12.8798665 C98.1530937,12.6424728 98.0621022,12.4487139 98.0378662,12.3900611 C98.0161813,12.33781 98.0535984,12.4088266 98.09385,12.6685203 C98.1338182,12.9268371 98.1709518,13.3353632 98.1678337,13.9373643 L106.388104,13.981652 C106.406813,10.4966463 105.541969,7.42363013 102.794792,6.09891545 L99.2285504,13.5167726 Z M100.65465,14.2319062 C101.303921,13.431178 101.474849,13.5231603 101.089907,13.6604239 C100.871357,13.7383533 100.555297,13.7993909 100.176024,13.7712852 C99.8034123,13.7437473 99.480832,13.638422 99.2286921,13.5167726 L102.794792,6.09891545 C101.641667,5.54282031 100.070009,5.2850429 98.3335176,5.90404936 C96.7671038,6.46240146 95.4406411,7.60229997 94.2733426,9.0419073 L100.65465,14.2319062 Z M96.8158594,24.1759252 C97.86708,18.9116449 99.4506433,15.7169652 100.654792,14.2319062 L94.2733426,9.04192149 C91.9207456,11.9434362 89.9520986,16.5675171 88.7551782,22.5612677 L96.8158594,24.1759252 Z M94.9610226,41.715151 C94.9610226,35.9192759 95.2525637,32.0047783 96.8158594,24.1759252 L88.7551782,22.5612677 C87.0881353,30.9090824 86.7406103,35.3642595 86.7406103,41.715151 L94.9610226,41.715151 Z M94.9509596,42.0816605 C94.9577627,41.9594434 94.9610226,41.8372262 94.9610226,41.715151 L86.7406103,41.715151 C86.7406103,41.6881809 86.7413189,41.6603591 86.742878,41.6319695 L94.9509596,42.0816605 Z M94.9593218,42.1495116 C94.9631485,41.9763352 94.9604556,41.8037265 94.9509596,41.6318276 L86.742878,42.0818025 C86.740752,42.0419151 86.7401851,42.0025955 86.7410355,41.9637018 L94.9593218,42.1495116 Z M94.9594635,42.9738031 C94.9532273,42.6801129 94.9536525,42.4038823 94.9593218,42.1493697 L86.7410355,41.9639857 C86.7325316,42.3425608 86.7321064,42.7400149 86.7410355,43.1519478 L94.9594635,42.9738031 Z M33.703644,13.5766746 C32.7332102,22.2545182 28.1989441,28.3642402 25.6469313,31.1945396 L31.7478945,36.7124808 C34.8958872,33.22113 40.6355775,25.5583559 41.873033,14.4930903 L33.703644,13.5766746 Z M35.0210359,13.3129354 C34.3325055,13.1712714 33.926729,12.8080267 33.7492815,12.5173458 C33.5766528,12.2343868 33.8363044,12.3906572 33.703644,13.5766746 L41.873033,14.4930903 C42.1418972,12.0880953 41.8146398,9.94614388 40.7629939,8.2232795 C39.7068127,6.49270734 38.1301943,5.54783107 36.6754648,5.24849132 L35.0210359,13.3129354 Z M35.7269993,14.0835706 C36.0580835,13.1891568 36.3395617,13.0941937 36.1896101,13.1915699 C36.1289491,13.2310315 36.008761,13.2920691 35.8240852,13.3295433 C35.6579762,13.363185 35.3864191,13.3881678 35.0210359,13.3129354 L36.6754648,5.24849132 C33.3205444,4.55808507 29.6889647,6.71159102 28.0193706,11.2213471 L35.7269993,14.0835706 Z M34.5112286,19.7106697 C34.9620757,16.8428961 35.3920883,14.9882047 35.7269993,14.0835706 L28.0193706,11.2213471 C27.3760525,12.9589173 26.8482453,15.5216449 26.3908786,18.4301576 L34.5112286,19.7106697 Z M33.3230956,29.1367208 C33.6915968,25.6950517 34.0809326,22.4484191 34.5112286,19.7106697 L26.3908786,18.4301576 C25.928693,21.3704666 25.5223495,24.7763648 25.1495963,28.2589149 L33.3230956,29.1367208 Z M32.7873515,34.3618234 C32.9619644,32.607915 33.1395536,30.8503159 33.3230956,29.1367208 L25.1495963,28.2589149 C24.9627946,30.0033128 24.7826542,31.7851849 24.6074743,33.5450551 L32.7873515,34.3618234 Z M56.4544854,44.764476 C56.4618554,47.7290582 57.2393931,50.7338115 59.0902614,53.1372736 L65.5994106,48.1090527 C65.1039182,47.4656028 64.6788662,46.3542926 64.6748977,44.7438936 L56.4544854,44.764476 Z M60.0534669,34.3020633 C57.7459405,36.9552117 56.4448477,40.9181135 56.4544322,44.764476 L64.6748977,44.7438936 C64.6693702,42.5422815 65.4656163,40.6139191 66.252083,39.709427 L60.0534669,34.3020633 Z M70.797971,31.4139911 C67.4674285,29.9321969 63.1246413,30.7705412 60.0534669,34.3020633 L66.252083,39.709427 C66.726741,39.1637793 67.1095571,39.017431 67.2828944,38.9749885 C67.4937905,38.9233195 67.5575695,38.9810923 67.4606254,38.9379401 L70.797971,31.4139911 Z M74.6288249,35.2728451 C73.8555392,33.479759 72.4692659,32.1576562 70.797971,31.4139911 L67.4606254,38.9379401 C67.4179642,38.9190611 67.3422798,38.8757669 67.2605008,38.7945727 C67.1770211,38.7115332 67.1173523,38.6186993 67.0823447,38.5375051 L74.6288249,35.2728451 Z M74.8466658,41.6058511 C75.5210231,39.2306367 75.4025357,37.0667828 74.6288249,35.2728451 L67.0823447,38.5375051 C67.0459197,38.4529041 67.062644,38.4452389 67.0668959,38.551274 C67.0712896,38.6608578 67.0629275,38.9197708 66.9396213,39.3541314 L74.8466658,41.6058511 Z M64.4135453,54.1801649 C68.3008082,51.912547 73.1043636,47.7425432 74.8466658,41.6058511 L66.9396213,39.3541314 C66.0071714,42.6385222 63.2031604,45.358528 60.2762685,47.0660195 L64.4135453,54.1801649 Z M151.65,52.3611111 C154.38381,52.3611111 156.6,49.1276121 156.6,45.1388889 C156.6,41.1501657 154.38381,37.9166667 151.65,37.9166667 C148.91619,37.9166667 146.7,41.1501657 146.7,45.1388889 C146.7,49.1276121 148.91619,52.3611111 151.65,52.3611111 Z M66.15,46.0416667 C67.889697,46.0416667 69.3,43.8186361 69.3,41.0763889 C69.3,38.3341417 67.889697,36.1111111 66.15,36.1111111 C64.410303,36.1111111 63,38.3341417 63,41.0763889 C63,43.8186361 64.410303,46.0416667 66.15,46.0416667 Z" id="path-1"></path>
    </defs>
    <g id="Page-1" stroke="none" stroke-width="1" fill="none" fill-rule="evenodd">
        <g id="Group-2-Copy-3" transform="translate(0, 0)">
            <mask id="mask-2" fill="white">
                <use xlink:href="#path-1"></use>
            </mask>
            <use id="Shape" fill="#000000" fill-rule="nonzero" xlink:href="#path-1"></use>
            <ellipse id="Oval" fill="#000000" fill-rule="nonzero" mask="url(#mask-2)" cx="65.4096325" cy="40.2509583" rx="6.87396545" ry="6.88447369"></ellipse>
            <ellipse id="Oval" fill="#000000" fill-rule="nonzero" mask="url(#mask-2)" cx="151.58223" cy="46.7095883" rx="6.87396545" ry="9.65245796"></ellipse>
        </g>
    </g>
</svg>