<?xml version="1.0" encoding="UTF-8"?>
<svg width="81px" height="84px" viewBox="0 0 81 84" version="1.1" xmlns="http://www.w3.org/2000/svg" xmlns:xlink="http://www.w3.org/1999/xlink">
    <title>Path 2 Copy</title>
    <defs>
        <path d="M44.6802976,0 L45.8525315,0.608048637 L49.6136581,2.55888741 L49.6943436,2.50816015 C50.1170787,2.24046251 50.1170787,2.24046251 50.7813766,1.81979478 L51.0919071,1.62315086 L51.4399644,1.5049828 C51.8538605,1.36446196 52.0312445,1.30423874 52.1932706,1.24922965 L52.3153661,1.20777731 C52.3994508,1.17922994 52.4935181,1.14729338 52.6252123,1.1025822 C52.8062918,1.04110433 52.8062918,1.04110433 52.9215242,1.00198205 C52.9667941,0.986612585 52.9667941,0.986612585 52.9956022,0.976832014 C53.0069197,0.972989648 53.0069197,0.972989648 53.0141217,0.970544505 L53.502617,0.804696679 L56.4170124,0.804696679 L56.9768264,1.0328867 L58.2930949,1.56942084 L58.5399949,1.67006161 L58.7659566,1.81157372 L60.231501,2.72939421 L61.2733466,3.38186661 L61.5805951,4.57198377 L62.3753123,7.65187819 L62.5102324,8.21036179 L79.4458369,17.8847237 L81,18.7725258 L81,34.8343392 L79.6413171,35.7512657 L79.0484737,36.1501225 L78.3845148,62.2118485 L78.3366789,64.0882194 L76.6476493,64.9075692 L38.9193795,83.2095877 L37.2900025,84 L35.8057695,82.9624552 L5.79565618,61.9840525 L4.57980577,61.134119 L4.48503608,59.6538719 L2.82405976,33.7055958 L2.14405686,33.1350205 L1.90333082,32.9328176 L1.70836582,32.6862086 L1.15302716,31.9837671 L0.529563539,31.1951551 L0.490736617,30.1906856 L0.0421005801,18.5842742 L0,17.4951137 L0.651843966,16.6214401 L1.10048,16.0201282 L1.60336834,15.3461015 L2.37887372,15.0206256 L15.7684392,9.39986185 L15.7764133,9.37642557 C15.7854132,9.34839567 15.7884132,9.33905237 15.7919586,9.32801029 L15.7985041,9.3076249 C15.801879,9.29711369 15.801879,9.29711369 15.8040267,9.29042474 L15.8433756,9.16787464 L15.8900477,9.05440659 C15.8945084,9.04356191 15.8945084,9.04356191 15.8982828,9.03438564 C15.9078904,9.01102787 15.9078904,9.01102787 15.9229881,8.97432279 C15.9614186,8.88089169 15.9614186,8.88089169 16.0218093,8.73407139 C16.1282321,8.47533911 16.1609776,8.39572917 16.2512076,8.17636444 L16.3213165,8.00591754 C16.3394285,7.9618842 16.3594418,7.91322829 16.381783,7.85891295 L16.3991577,7.81488963 L17.2781993,5.50984123 L17.959641,3.74362442 L18.1247086,3.31578866 L18.4071512,2.9544894 L19.1616142,1.98938393 L20.0877335,0.804696679 L25.1001139,0.804696679 L25.4708501,0.898023384 L27.5939282,1.43248537 L29.3165289,1.8610567 L29.6586575,1.94617596 L29.9727469,2.1062946 L31.6541216,2.96343726 L32.1102995,3.19599076 L32.4668409,3.56345022 L32.922749,4.0336208 L32.9813159,4.01358005 C33.375708,3.8782756 33.6208707,3.79416743 34.4689203,3.5032263 L34.6601471,3.43762193 C35.843541,3.03163396 36.6163696,2.76649895 37.3449098,2.516558 L37.6007992,2.42876983 L37.8749505,2.33471648 C39.0690501,1.92505567 40.3839091,1.47396581 43.4311838,0.428534597 L44.6802976,0 Z" id="path-1"></path>
    </defs>
    <g id="Page-1" stroke="none" stroke-width="1" fill="none" fill-rule="evenodd">
        <g id="Group-5-Copy-4" transform="translate(0, -0)">
            <mask id="mask-2" fill="white">
                <use xlink:href="#path-1"></use>
            </mask>
            <use id="Path-2-Copy" fill="#000000" fill-rule="nonzero" xlink:href="#path-1"></use>
        </g>
    </g>
</svg>